<svg width="55" height="44" viewBox="0 0 55 44" fill="none" xmlns="http://www.w3.org/2000/svg">
<path d="M39.9264 38.0254C39.051 38.0254 38.3566 38.2669 37.783 38.7801C37.2094 39.2933 36.9377 39.9575 36.9377 40.7726C36.9377 41.5575 37.2094 42.2216 37.783 42.765C38.3566 43.3084 39.051 43.5801 39.9264 43.5801C40.8019 43.5801 41.4962 43.3084 42.0698 42.765C42.6434 42.2216 42.9151 41.5575 42.9151 40.7726C42.9151 39.9575 42.6434 39.2933 42.0698 38.7801C41.4962 38.2669 40.8019 38.0254 39.9264 38.0254Z" fill="url(#paint0_linear_1544_1521)"/>
<path d="M21.8133 38.0254C20.9378 38.0254 20.2435 38.2669 19.6699 38.7801C19.0963 39.2933 18.8246 39.9575 18.8246 40.7726C18.8246 41.5575 19.0963 42.2216 19.6699 42.765C20.2435 43.3084 20.9378 43.5801 21.8133 43.5801C22.6887 43.5801 23.3831 43.3084 23.9567 42.765C24.5302 42.2216 24.8019 41.5575 24.8019 40.7726C24.8019 39.9575 24.5302 39.2933 23.9567 38.7801C23.3831 38.2669 22.6887 38.0254 21.8133 38.0254Z" fill="url(#paint1_linear_1544_1521)"/>
<path d="M5.75283 0.95345L0.5 0.19873L12.4849 35.6402H12.5453H45.5415L48.0472 30.9308H15.866L5.75283 0.95345Z" fill="url(#paint2_linear_1544_1521)"/>
<path d="M23.3528 23.746L31.2019 10.4629L34.7339 25.4063L40.2585 26.2214L54.1151 0.0478516L48.6207 0.0780396L38.3264 20.5158L35.0358 5.33087L29.0887 4.42521L21.4811 18.0101L18.8547 2.91578L13.8434 2.16106L17.8887 22.9309L23.3528 23.746Z" fill="url(#paint3_linear_1544_1521)"/>
<defs>
<linearGradient id="paint0_linear_1544_1521" x1="32.8984" y1="40.7855" x2="41.2219" y2="40.7855" gradientUnits="userSpaceOnUse">
<stop stop-color="#B3C6FF"/>
<stop offset="1" stop-color="#F1B3FF"/>
</linearGradient>
<linearGradient id="paint1_linear_1544_1521" x1="13.3076" y1="40.7855" x2="36.0668" y2="40.7855" gradientUnits="userSpaceOnUse">
<stop stop-color="#B3C6FF"/>
<stop offset="1" stop-color="#F1B3FF"/>
</linearGradient>
<linearGradient id="paint2_linear_1544_1521" x1="0.5" y1="17.9205" x2="48.0538" y2="17.9205" gradientUnits="userSpaceOnUse">
<stop stop-color="#B3C6FF"/>
<stop offset="1" stop-color="#F1B3FF"/>
</linearGradient>
<linearGradient id="paint3_linear_1544_1521" x1="13.8578" y1="13.1356" x2="54.1168" y2="13.1356" gradientUnits="userSpaceOnUse">
<stop stop-color="#B3C6FF"/>
<stop offset="1" stop-color="#F1B3FF"/>
</linearGradient>
</defs>
</svg>