<svg width="62" height="61" viewBox="0 0 62 61" fill="none"
                                xmlns="http://www.w3.org/2000/svg">
                                <g filter="url(#filter0_d_663_555)">
                                    <rect x="3.5" y="2" width="55" height="55" rx="15" fill="#F9F9FF" />
                                    <mask id="mask0_663_555" style="mask-type:alpha" maskUnits="userSpaceOnUse" x="16"
                                        y="14" width="30" height="31">
                                        <rect x="16" y="14.5" width="30" height="30" fill="#D9D9D9" />
                                    </mask>
                                    <g mask="url(#mask0_663_555)">
                                        <path
                                            d="M31 42C29.2708 42 27.6458 41.6719 26.125 41.0156C24.6042 40.3594 23.2812 39.4688 22.1562 38.3438C21.0312 37.2188 20.1406 35.8958 19.4844 34.375C18.8281 32.8542 18.5 31.2292 18.5 29.5C18.5 27.7708 18.8281 26.1458 19.4844 24.625C20.1406 23.1042 21.0312 21.7812 22.1562 20.6562C23.2812 19.5312 24.6042 18.6406 26.125 17.9844C27.6458 17.3281 29.2708 17 31 17C32.7292 17 34.3542 17.3281 35.875 17.9844C37.3958 18.6406 38.7188 19.5312 39.8438 20.6562C40.9688 21.7812 41.8594 23.1042 42.5156 24.625C43.1719 26.1458 43.5 27.7708 43.5 29.5C43.5 31.2292 43.1719 32.8542 42.5156 34.375C41.8594 35.8958 40.9688 37.2188 39.8438 38.3438C38.7188 39.4688 37.3958 40.3594 35.875 41.0156C34.3542 41.6719 32.7292 42 31 42ZM31 39.5C33.7917 39.5 36.1562 38.5312 38.0938 36.5938C40.0312 34.6562 41 32.2917 41 29.5C41 29.3542 40.9948 29.2031 40.9844 29.0469C40.974 28.8906 40.9688 28.7604 40.9688 28.6562C40.8646 29.2604 40.5833 29.7604 40.125 30.1563C39.6667 30.5521 39.125 30.75 38.5 30.75H36C35.3125 30.75 34.724 30.5052 34.2344 30.0156C33.7448 29.526 33.5 28.9375 33.5 28.25V27H28.5V24.5C28.5 23.8125 28.7448 23.224 29.2344 22.7344C29.724 22.2448 30.3125 22 31 22H32.25C32.25 21.5208 32.3802 21.099 32.6406 20.7344C32.901 20.3698 33.2188 20.0729 33.5938 19.8438C33.1771 19.7396 32.7552 19.6562 32.3281 19.5938C31.901 19.5312 31.4583 19.5 31 19.5C28.2083 19.5 25.8438 20.4688 23.9063 22.4063C21.9688 24.3438 21 26.7083 21 29.5H27.25C28.625 29.5 29.8021 29.9896 30.7812 30.9688C31.7604 31.9479 32.25 33.125 32.25 34.5V35.75H28.5V39.1875C28.9167 39.2917 29.3281 39.3698 29.7344 39.4219C30.1406 39.474 30.5625 39.5 31 39.5Z"
                                            fill="#425E91" />
                                    </g>
                                </g>
                                <defs>
                                    <filter id="filter0_d_663_555" x="0.5" y="0" width="61" height="61"
                                        filterUnits="userSpaceOnUse" color-interpolation-filters="sRGB">
                                        <feFlood flood-opacity="0" result="BackgroundImageFix" />
                                        <feColorMatrix in="SourceAlpha" type="matrix"
                                            values="0 0 0 0 0 0 0 0 0 0 0 0 0 0 0 0 0 0 127 0" result="hardAlpha" />
                                        <feMorphology radius="1" operator="dilate" in="SourceAlpha"
                                            result="effect1_dropShadow_663_555" />
                                        <feOffset dy="1" />
                                        <feGaussianBlur stdDeviation="1" />
                                        <feColorMatrix type="matrix"
                                            values="0 0 0 0 0 0 0 0 0 0.105882 0 0 0 0 0.247059 0 0 0 0.05 0" />
                                        <feBlend mode="normal" in2="BackgroundImageFix"
                                            result="effect1_dropShadow_663_555" />
                                        <feBlend mode="normal" in="SourceGraphic" in2="effect1_dropShadow_663_555"
                                            result="shape" />
                                    </filter>
                                </defs>
                            </svg>