 <svg width="62" height="61" viewBox="0 0 62 61" fill="none"
                                xmlns="http://www.w3.org/2000/svg">
                                <g filter="url(#filter0_d_663_565)">
                                    <rect x="3.5" y="2" width="55" height="55" rx="15" fill="#F9F9FF" />
                                    <path
                                        d="M31 42C29.2708 42 27.6458 41.6719 26.125 41.0156C24.6042 40.3594 23.2812 39.4688 22.1562 38.3438C21.0312 37.2188 20.1406 35.8958 19.4844 34.375C18.8281 32.8542 18.5 31.2292 18.5 29.5C18.5 27.7708 18.8281 26.1458 19.4844 24.625C20.1406 23.1042 21.0312 21.7812 22.1562 20.6562C23.2812 19.5312 24.6042 18.6406 26.125 17.9844C27.6458 17.3281 29.2708 17 31 17H41C41.6875 17 42.276 17.2448 42.7656 17.7344C43.2552 18.224 43.5 18.8125 43.5 19.5V29.5C43.5 31.2292 43.1719 32.8542 42.5156 34.375C41.8594 35.8958 40.9688 37.2188 39.8438 38.3438C38.7188 39.4688 37.3958 40.3594 35.875 41.0156C34.3542 41.6719 32.7292 42 31 42ZM31 39.5C33.7917 39.5 36.1562 38.5312 38.0938 36.5938C40.0312 34.6562 41 32.2917 41 29.5V19.5H31C28.2083 19.5 25.8438 20.4688 23.9063 22.4063C21.9688 24.3438 21 26.7083 21 29.5C21 32.2917 21.9688 34.6562 23.9063 36.5938C25.8438 38.5312 28.2083 39.5 31 39.5ZM24.75 33.25H33.5V30.75L37.25 33.25V25.75L33.5 28.25V25.75H24.75V33.25Z"
                                        fill="#425E91" />
                                </g>
                                <defs>
                                    <filter id="filter0_d_663_565" x="0.5" y="0" width="61" height="61"
                                        filterUnits="userSpaceOnUse" color-interpolation-filters="sRGB">
                                        <feFlood flood-opacity="0" result="BackgroundImageFix" />
                                        <feColorMatrix in="SourceAlpha" type="matrix"
                                            values="0 0 0 0 0 0 0 0 0 0 0 0 0 0 0 0 0 0 127 0" result="hardAlpha" />
                                        <feMorphology radius="1" operator="dilate" in="SourceAlpha"
                                            result="effect1_dropShadow_663_565" />
                                        <feOffset dy="1" />
                                        <feGaussianBlur stdDeviation="1" />
                                        <feColorMatrix type="matrix"
                                            values="0 0 0 0 0 0 0 0 0 0.105882 0 0 0 0 0.247059 0 0 0 0.05 0" />
                                        <feBlend mode="normal" in2="BackgroundImageFix"
                                            result="effect1_dropShadow_663_565" />
                                        <feBlend mode="normal" in="SourceGraphic" in2="effect1_dropShadow_663_565"
                                            result="shape" />
                                    </filter>
                                </defs>
                            </svg>