<svg width="62" height="61" viewBox="0 0 62 61" fill="none"
                                xmlns="http://www.w3.org/2000/svg">
                                <g filter="url(#filter0_d_663_561)">
                                    <rect x="3.5" y="2" width="55" height="55" rx="15" fill="#F9F9FF" />
                                    <path
                                        d="M21 44.5C20.2143 44.5 19.5416 44.2202 18.9821 43.6607C18.4226 43.1012 18.1428 42.4286 18.1428 41.6429V24.5C18.1428 23.7143 18.4226 23.0417 18.9821 22.4821C19.5416 21.9226 20.2143 21.6429 21 21.6429H23.8571C23.8571 19.6667 24.5535 17.9821 25.9464 16.5893C27.3393 15.1964 29.0238 14.5 31 14.5C32.9762 14.5 34.6607 15.1964 36.0535 16.5893C37.4464 17.9821 38.1428 19.6667 38.1428 21.6429H41C41.7857 21.6429 42.4583 21.9226 43.0178 22.4821C43.5773 23.0417 43.8571 23.7143 43.8571 24.5V41.6429C43.8571 42.4286 43.5773 43.1012 43.0178 43.6607C42.4583 44.2202 41.7857 44.5 41 44.5H21ZM21 41.6429H41V24.5H21V41.6429ZM31 33.0714C32.9762 33.0714 34.6607 32.375 36.0535 30.9821C37.4464 29.5893 38.1428 27.9048 38.1428 25.9286H35.2857C35.2857 27.119 34.869 28.131 34.0357 28.9643C33.2023 29.7976 32.1904 30.2143 31 30.2143C29.8095 30.2143 28.7976 29.7976 27.9643 28.9643C27.1309 28.131 26.7143 27.119 26.7143 25.9286H23.8571C23.8571 27.9048 24.5535 29.5893 25.9464 30.9821C27.3393 32.375 29.0238 33.0714 31 33.0714ZM26.7143 21.6429H35.2857C35.2857 20.4524 34.869 19.4405 34.0357 18.6071C33.2023 17.7738 32.1904 17.3571 31 17.3571C29.8095 17.3571 28.7976 17.7738 27.9643 18.6071C27.1309 19.4405 26.7143 20.4524 26.7143 21.6429Z"
                                        fill="#425E91" />
                                </g>
                                <defs>
                                    <filter id="filter0_d_663_561" x="0.5" y="0" width="61" height="61"
                                        filterUnits="userSpaceOnUse" color-interpolation-filters="sRGB">
                                        <feFlood flood-opacity="0" result="BackgroundImageFix" />
                                        <feColorMatrix in="SourceAlpha" type="matrix"
                                            values="0 0 0 0 0 0 0 0 0 0 0 0 0 0 0 0 0 0 127 0" result="hardAlpha" />
                                        <feMorphology radius="1" operator="dilate" in="SourceAlpha"
                                            result="effect1_dropShadow_663_561" />
                                        <feOffset dy="1" />
                                        <feGaussianBlur stdDeviation="1" />
                                        <feColorMatrix type="matrix"
                                            values="0 0 0 0 0 0 0 0 0 0.105882 0 0 0 0 0.247059 0 0 0 0.05 0" />
                                        <feBlend mode="normal" in2="BackgroundImageFix"
                                            result="effect1_dropShadow_663_561" />
                                        <feBlend mode="normal" in="SourceGraphic" in2="effect1_dropShadow_663_561"
                                            result="shape" />
                                    </filter>
                                </defs>
                            </svg>