<svg width="62" height="61" viewBox="0 0 62 61" fill="none"
                                xmlns="http://www.w3.org/2000/svg">
                                <g filter="url(#filter0_d_663_549)">
                                    <rect x="3.5" y="2" width="55" height="55" rx="15" fill="#F9F9FF" />
                                    <mask id="mask0_663_549" style="mask-type:alpha" maskUnits="userSpaceOnUse" x="16"
                                        y="14" width="30" height="31">
                                        <rect x="16" y="14.5" width="30" height="30" fill="#D9D9D9" />
                                    </mask>
                                    <g mask="url(#mask0_663_549)">
                                        <path
                                            d="M28.5 29.5C27.125 29.5 25.9479 29.0104 24.9688 28.0312C23.9896 27.0521 23.5 25.875 23.5 24.5C23.5 23.125 23.9896 21.9479 24.9688 20.9688C25.9479 19.9896 27.125 19.5 28.5 19.5C29.875 19.5 31.0521 19.9896 32.0312 20.9688C33.0104 21.9479 33.5 23.125 33.5 24.5C33.5 25.875 33.0104 27.0521 32.0312 28.0312C31.0521 29.0104 29.875 29.5 28.5 29.5ZM18.5 39.5V36C18.5 35.3125 18.6771 34.6667 19.0312 34.0625C19.3854 33.4583 19.875 33 20.5 32.6875C21.5625 32.1458 22.7604 31.6875 24.0938 31.3125C25.4271 30.9375 26.8958 30.75 28.5 30.75H28.9375C29.0625 30.75 29.1875 30.7708 29.3125 30.8125C29.1458 31.1875 29.0052 31.5781 28.8906 31.9844C28.776 32.3906 28.6875 32.8125 28.625 33.25H28.5C27.0208 33.25 25.6927 33.4375 24.5156 33.8125C23.3385 34.1875 22.375 34.5625 21.625 34.9375C21.4375 35.0417 21.2865 35.1875 21.1719 35.375C21.0573 35.5625 21 35.7708 21 36V37H28.875C29 37.4375 29.1667 37.8698 29.375 38.2969C29.5833 38.724 29.8125 39.125 30.0625 39.5H18.5ZM36 40.75L35.625 38.875C35.375 38.7708 35.1406 38.6615 34.9219 38.5469C34.7031 38.4323 34.4792 38.2917 34.25 38.125L32.4375 38.6875L31.1875 36.5625L32.625 35.3125C32.5833 35.0208 32.5625 34.75 32.5625 34.5C32.5625 34.25 32.5833 33.9792 32.625 33.6875L31.1875 32.4375L32.4375 30.3125L34.25 30.875C34.4792 30.7083 34.7031 30.5677 34.9219 30.4531C35.1406 30.3385 35.375 30.2292 35.625 30.125L36 28.25H38.5L38.875 30.125C39.125 30.2292 39.3594 30.3438 39.5781 30.4688C39.7969 30.5938 40.0208 30.75 40.25 30.9375L42.0625 30.3125L43.3125 32.5L41.875 33.75C41.9167 34 41.9375 34.2604 41.9375 34.5313C41.9375 34.8021 41.9167 35.0625 41.875 35.3125L43.3125 36.5625L42.0625 38.6875L40.25 38.125C40.0208 38.2917 39.7969 38.4323 39.5781 38.5469C39.3594 38.6615 39.125 38.7708 38.875 38.875L38.5 40.75H36ZM37.25 37C37.9375 37 38.526 36.7552 39.0156 36.2656C39.5052 35.776 39.75 35.1875 39.75 34.5C39.75 33.8125 39.5052 33.224 39.0156 32.7344C38.526 32.2448 37.9375 32 37.25 32C36.5625 32 35.974 32.2448 35.4844 32.7344C34.9948 33.224 34.75 33.8125 34.75 34.5C34.75 35.1875 34.9948 35.776 35.4844 36.2656C35.974 36.7552 36.5625 37 37.25 37ZM28.5 27C29.1875 27 29.776 26.7552 30.2656 26.2656C30.7552 25.776 31 25.1875 31 24.5C31 23.8125 30.7552 23.224 30.2656 22.7344C29.776 22.2448 29.1875 22 28.5 22C27.8125 22 27.224 22.2448 26.7344 22.7344C26.2448 23.224 26 23.8125 26 24.5C26 25.1875 26.2448 25.776 26.7344 26.2656C27.224 26.7552 27.8125 27 28.5 27Z"
                                            fill="#425E91" />
                                    </g>
                                </g>
                                <defs>
                                    <filter id="filter0_d_663_549" x="0.5" y="0" width="61" height="61"
                                        filterUnits="userSpaceOnUse" color-interpolation-filters="sRGB">
                                        <feFlood flood-opacity="0" result="BackgroundImageFix" />
                                        <feColorMatrix in="SourceAlpha" type="matrix"
                                            values="0 0 0 0 0 0 0 0 0 0 0 0 0 0 0 0 0 0 127 0" result="hardAlpha" />
                                        <feMorphology radius="1" operator="dilate" in="SourceAlpha"
                                            result="effect1_dropShadow_663_549" />
                                        <feOffset dy="1" />
                                        <feGaussianBlur stdDeviation="1" />
                                        <feColorMatrix type="matrix"
                                            values="0 0 0 0 0 0 0 0 0 0.105882 0 0 0 0 0.247059 0 0 0 0.05 0" />
                                        <feBlend mode="normal" in2="BackgroundImageFix"
                                            result="effect1_dropShadow_663_549" />
                                        <feBlend mode="normal" in="SourceGraphic" in2="effect1_dropShadow_663_549"
                                            result="shape" />
                                    </filter>
                                </defs>
                            </svg>