<svg width="62" height="62" viewBox="0 0 62 62" fill="none"
                                xmlns="http://www.w3.org/2000/svg">
                                <g filter="url(#filter0_d_644_537)">
                                    <rect x="3.5" y="2.5" width="55" height="55" rx="15" fill="#F9F9FF" />
                                    <mask id="mask0_644_537" style="mask-type:alpha" maskUnits="userSpaceOnUse" x="16"
                                        y="15" width="30" height="30">
                                        <rect x="16" y="15" width="30" height="30" fill="#F9F9FF" />
                                    </mask>
                                    <g mask="url(#mask0_644_537)">
                                        <path
                                            d="M42.2812 28.8125V38.75C42.2812 39.4375 42.0364 40.026 41.5468 40.5156C41.0573 41.0052 40.4687 41.25 39.7812 41.25H22.2812C21.5937 41.25 21.0052 41.0052 20.5156 40.5156C20.026 40.026 19.7812 39.4375 19.7812 38.75V28.8125C19.302 28.375 18.9322 27.8125 18.6718 27.125C18.4114 26.4375 18.4062 25.6875 18.6562 24.875L19.9687 20.625C20.1354 20.0833 20.4322 19.6354 20.8593 19.2812C21.2864 18.9271 21.7812 18.75 22.3437 18.75H39.7187C40.2812 18.75 40.7708 18.9219 41.1875 19.2656C41.6041 19.6094 41.9062 20.0625 42.0937 20.625L43.4062 24.875C43.6562 25.6875 43.651 26.4271 43.3906 27.0938C43.1302 27.7604 42.7604 28.3333 42.2812 28.8125ZM33.7812 27.5C34.3437 27.5 34.7708 27.3073 35.0625 26.9219C35.3541 26.5365 35.4687 26.1042 35.4062 25.625L34.7187 21.25H32.2812V25.875C32.2812 26.3125 32.427 26.6927 32.7187 27.0156C33.0104 27.3385 33.3645 27.5 33.7812 27.5ZM28.1562 27.5C28.6354 27.5 29.026 27.3385 29.3281 27.0156C29.6302 26.6927 29.7812 26.3125 29.7812 25.875V21.25H27.3437L26.6562 25.625C26.5729 26.125 26.6823 26.5625 26.9843 26.9375C27.2864 27.3125 27.677 27.5 28.1562 27.5ZM22.5937 27.5C22.9687 27.5 23.2968 27.3646 23.5781 27.0938C23.8593 26.8229 24.0312 26.4792 24.0937 26.0625L24.7812 21.25H22.3437L21.0937 25.4375C20.9687 25.8542 21.0364 26.3021 21.2968 26.7812C21.5572 27.2604 21.9895 27.5 22.5937 27.5ZM39.4687 27.5C40.0729 27.5 40.5104 27.2604 40.7812 26.7812C41.052 26.3021 41.1145 25.8542 40.9687 25.4375L39.6562 21.25H37.2812L37.9687 26.0625C38.0312 26.4792 38.2031 26.8229 38.4843 27.0938C38.7656 27.3646 39.0937 27.5 39.4687 27.5ZM22.2812 38.75H39.7812V29.9375C39.677 29.9792 39.6093 30 39.5781 30H39.4687C38.9062 30 38.4114 29.9063 37.9843 29.7188C37.5572 29.5313 37.1354 29.2292 36.7187 28.8125C36.3437 29.1875 35.9166 29.4792 35.4375 29.6875C34.9583 29.8958 34.4479 30 33.9062 30C33.3437 30 32.8177 29.8958 32.3281 29.6875C31.8385 29.4792 31.4062 29.1875 31.0312 28.8125C30.677 29.1875 30.2656 29.4792 29.7968 29.6875C29.3281 29.8958 28.8229 30 28.2812 30C27.677 30 27.1302 29.8958 26.6406 29.6875C26.151 29.4792 25.7187 29.1875 25.3437 28.8125C24.9062 29.25 24.4739 29.5573 24.0468 29.7344C23.6197 29.9115 23.1354 30 22.5937 30H22.4531C22.401 30 22.3437 29.9792 22.2812 29.9375V38.75Z"
                                            fill="#425E91" />
                                    </g>
                                </g>
                                <defs>
                                    <filter id="filter0_d_644_537" x="0.5" y="0.5" width="61" height="61"
                                        filterUnits="userSpaceOnUse" color-interpolation-filters="sRGB">
                                        <feFlood flood-opacity="0" result="BackgroundImageFix" />
                                        <feColorMatrix in="SourceAlpha" type="matrix"
                                            values="0 0 0 0 0 0 0 0 0 0 0 0 0 0 0 0 0 0 127 0" result="hardAlpha" />
                                        <feMorphology radius="1" operator="dilate" in="SourceAlpha"
                                            result="effect1_dropShadow_644_537" />
                                        <feOffset dy="1" />
                                        <feGaussianBlur stdDeviation="1" />
                                        <feColorMatrix type="matrix"
                                            values="0 0 0 0 0 0 0 0 0 0.105882 0 0 0 0 0.247059 0 0 0 0.05 0" />
                                        <feBlend mode="normal" in2="BackgroundImageFix"
                                            result="effect1_dropShadow_644_537" />
                                        <feBlend mode="normal" in="SourceGraphic" in2="effect1_dropShadow_644_537"
                                            result="shape" />
                                    </filter>
                                </defs>
                            </svg>
