<svg width="130" height="29" viewBox="0 0 130 29" fill="none" xmlns="http://www.w3.org/2000/svg">
<g clip-path="url(#clip0_804_2954)">
<path d="M25.6272 25.4091C25.0582 25.4091 24.6068 25.566 24.234 25.8996C23.8612 26.2332 23.6846 26.6649 23.6846 27.1947C23.6846 27.7049 23.8612 28.1366 24.234 28.4898C24.6068 28.843 25.0582 29.0196 25.6272 29.0196C26.1963 29.0196 26.6476 28.843 27.0204 28.4898C27.3932 28.1366 27.5699 27.7049 27.5699 27.1947C27.5699 26.6649 27.3932 26.2332 27.0204 25.8996C26.6476 25.566 26.1963 25.4091 25.6272 25.4091Z" fill="url(#paint0_linear_804_2954)"/>
<path d="M13.8535 25.4091C13.2845 25.4091 12.8332 25.566 12.4603 25.8996C12.0875 26.2332 11.9109 26.6649 11.9109 27.1947C11.9109 27.7049 12.0875 28.1366 12.4603 28.4898C12.8332 28.843 13.2845 29.0196 13.8535 29.0196C14.4226 29.0196 14.8739 28.843 15.2467 28.4898C15.6196 28.1366 15.7962 27.7049 15.7962 27.1947C15.7962 26.6649 15.6196 26.2332 15.2467 25.8996C14.8739 25.566 14.4226 25.4091 13.8535 25.4091Z" fill="url(#paint1_linear_804_2954)"/>
<path d="M3.41434 1.31243L0 0.821869L7.79019 23.8589H7.82943H29.277L30.9057 20.7977H9.98792L3.41434 1.31243Z" fill="url(#paint2_linear_804_2954)"/>
<path d="M14.8543 16.1275L19.9562 7.49357L22.2521 17.2068L25.843 17.7366L34.8498 0.723755L31.2785 0.743378L24.5872 14.0279L22.4483 4.15772L18.5827 3.56904L13.6377 12.3992L11.9306 2.58791L8.67322 2.09734L11.3027 15.5977L14.8543 16.1275Z" fill="url(#paint3_linear_804_2954)"/>
<path d="M94.2476 0.723755H90.8136V7.98413H94.2476V0.723755Z" fill="#131C2B"/>
<path d="M58.6521 20.1502C58.3185 20.5034 57.9261 20.7781 57.4747 20.9547C57.0038 21.1509 56.5329 21.249 55.9834 21.249C55.434 21.249 54.9631 21.1509 54.4921 20.9351C54.0408 20.7389 53.6287 20.4249 53.2755 20.0324C52.9223 19.64 52.6672 19.1494 52.471 18.5804C52.2747 17.9917 52.1963 17.3441 52.1963 16.6181C52.1963 15.637 52.3532 14.7932 52.6868 14.1064C53.0204 13.4196 53.4717 12.8898 54.0604 12.5562C54.6491 12.203 55.277 12.0264 55.9834 12.0264C56.8076 12.0264 57.514 12.2226 58.1027 12.6347C58.711 13.0468 59.1034 13.6158 59.28 14.3615H62.871C62.557 12.7328 61.7721 11.4377 60.5359 10.4958C59.2997 9.55395 57.7887 9.08301 55.9834 9.08301C54.551 9.08301 53.2951 9.39697 52.1766 10.0445C51.0778 10.6921 50.2144 11.5751 49.5864 12.7132C48.9585 13.8513 48.6642 15.1857 48.6642 16.677C48.6642 18.129 48.9781 19.4241 49.5864 20.5426C50.1948 21.6807 51.0581 22.5638 52.1766 23.1917C53.2755 23.8392 54.5314 24.1532 55.9834 24.1532C57.7691 24.1532 59.28 23.6626 60.4966 22.7207C61.7329 21.7592 62.5178 20.4838 62.8514 18.8747H59.2604C59.2015 19.3653 58.9661 19.797 58.6521 20.1502Z" fill="#131C2B"/>
<path d="M77.0974 11.7713C76.5872 10.9079 75.8612 10.2604 74.8997 9.78942C73.9382 9.31848 72.7608 9.10263 71.4068 9.10263C70.308 9.10263 69.268 9.29886 68.3457 9.69131C67.4038 10.1034 66.6385 10.6724 66.0695 11.4181C65.4808 12.1638 65.1472 13.0468 65.0295 14.0672H68.4046C68.5419 13.3411 68.8755 12.8113 69.4249 12.4385C69.9744 12.0853 70.6416 11.889 71.4265 11.889C72.1329 11.889 72.7019 12.0264 73.1532 12.2815C73.5849 12.5366 73.9185 12.929 74.1344 13.4196C74.3502 13.9298 74.468 14.5577 74.468 15.323H70.8378C69.4838 15.323 68.3457 15.4996 67.4431 15.8724C66.5208 16.2453 65.834 16.7751 65.3631 17.4423C64.8921 18.1094 64.6763 18.8747 64.6763 19.7773C64.6763 20.5819 64.8725 21.3079 65.2453 21.9751C65.6378 22.6423 66.2068 23.1721 67.0114 23.5841C67.7963 23.9766 68.7774 24.1728 69.9351 24.1728C70.5434 24.1728 71.0929 24.114 71.5638 23.9766C72.0348 23.8392 72.4665 23.6626 72.8589 23.4075C73.2514 23.1721 73.6046 22.8973 73.8793 22.5834C74.1736 22.2694 74.4091 21.9162 74.6053 21.5434L74.9389 23.8196H77.8823V14.9109C77.8431 13.6747 77.588 12.6151 77.0974 11.7713ZM74.311 17.56C74.2717 18.0702 74.154 18.5607 73.9774 19.0317C73.8008 19.5026 73.5653 19.9147 73.2514 20.2875C72.9374 20.6604 72.5842 20.9351 72.1329 21.1509C71.7012 21.3472 71.191 21.4453 70.6416 21.4453C70.1706 21.4453 69.7389 21.3668 69.3661 21.2098C68.9932 21.0528 68.6989 20.837 68.5027 20.5426C68.3065 20.2679 68.2083 19.8951 68.2083 19.483C68.2083 19.0906 68.3065 18.7373 68.5223 18.443C68.7185 18.1487 69.0521 17.9132 69.4838 17.7562C69.9155 17.5796 70.4649 17.5011 71.1517 17.5011H74.2914V17.56H74.311Z" fill="#131C2B"/>
<path d="M113.183 12.5366C112.595 11.477 111.79 10.6528 110.75 10.0249C109.71 9.39697 108.494 9.08301 107.081 9.08301C105.629 9.08301 104.353 9.41659 103.274 10.0641C102.175 10.7117 101.331 11.6143 100.723 12.7524C100.134 13.8906 99.8203 15.2249 99.8203 16.7162C99.8203 16.9909 99.8399 17.2656 99.8596 17.5404C99.9577 18.6785 100.252 19.6989 100.743 20.6015C101.351 21.72 102.195 22.603 103.294 23.2309C104.373 23.8589 105.629 24.1728 107.061 24.1728C108.18 24.1728 109.2 23.9766 110.083 23.5645C110.986 23.1524 111.731 22.5834 112.359 21.877C112.967 21.1706 113.399 20.366 113.635 19.483H110.142C109.906 20.0324 109.534 20.4838 109.004 20.8173C108.474 21.1706 107.826 21.3275 107.022 21.3275C106.276 21.3275 105.629 21.1509 105.06 20.8173C104.491 20.4838 104.039 19.9932 103.706 19.3457C103.431 18.8158 103.254 18.1683 103.215 17.4423H114.007C114.047 17.1675 114.066 16.9321 114.066 16.7162V16.1079C114.066 14.7736 113.772 13.5766 113.183 12.5366ZM103.274 15.2445C103.352 14.6951 103.509 14.2241 103.725 13.8121C104.059 13.1645 104.53 12.6936 105.118 12.3796C105.707 12.046 106.355 11.889 107.061 11.889C108.062 11.889 108.886 12.203 109.553 12.8113C110.22 13.4196 110.574 14.2438 110.613 15.2641H103.274V15.2445Z" fill="#131C2B"/>
<path d="M129.137 12.5366C128.548 11.477 127.743 10.6528 126.703 10.0249C125.663 9.39697 124.447 9.08301 123.034 9.08301C121.582 9.08301 120.306 9.41659 119.227 10.0641C118.128 10.7117 117.284 11.6143 116.676 12.7524C116.088 13.8906 115.774 15.2249 115.774 16.7162C115.774 18.1879 116.088 19.483 116.696 20.6015C117.304 21.72 118.148 22.603 119.247 23.2309C120.326 23.8589 121.582 24.1728 123.014 24.1728C124.133 24.1728 125.153 23.9766 126.036 23.5645C126.939 23.1524 127.685 22.5834 128.293 21.877C128.921 21.1706 129.333 20.366 129.568 19.483H126.075C125.84 20.0324 125.467 20.4838 124.937 20.8173C124.408 21.1706 123.76 21.3275 122.955 21.3275C122.21 21.3275 121.562 21.1509 120.993 20.8173C120.424 20.4838 119.973 19.9932 119.639 19.3457C119.365 18.8158 119.188 18.1683 119.149 17.4423H129.941C129.98 17.1675 130 16.9321 130 16.7162V16.1079C130 14.7736 129.706 13.5766 129.137 12.5366ZM119.208 15.2445C119.286 14.6951 119.443 14.2241 119.659 13.8121C120.012 13.1645 120.463 12.6936 121.072 12.3796C121.66 12.046 122.308 11.889 123.014 11.889C124.015 11.889 124.839 12.203 125.506 12.8113C126.174 13.4196 126.527 14.2438 126.566 15.2641H119.208V15.2445Z" fill="#131C2B"/>
<path d="M46.1328 12.5366C45.5441 11.477 44.7396 10.6528 43.6996 10.0249C42.6596 9.39697 41.443 9.08301 40.0302 9.08301C38.5781 9.08301 37.3026 9.41659 36.2234 10.0641C35.1245 10.7117 34.2807 11.6143 33.6724 12.7524C33.0837 13.8906 32.7698 15.2249 32.7698 16.7162C32.7698 18.1879 33.0837 19.483 33.692 20.6015C34.3003 21.72 35.1441 22.603 36.243 23.2309C37.3222 23.8589 38.5781 24.1728 40.0105 24.1728C41.129 24.1728 42.1494 23.9766 43.0324 23.5645C43.9351 23.1524 44.6807 22.5834 45.289 21.877C45.9169 21.1706 46.329 20.366 46.5645 19.483H43.0717C42.8362 20.0324 42.4634 20.4838 41.9335 20.8173C41.4037 21.1706 40.7562 21.3275 39.9517 21.3275C39.206 21.3275 38.5585 21.1509 37.9894 20.8173C37.4203 20.4838 36.969 19.9932 36.6354 19.3457C36.3607 18.8158 36.1841 18.1683 36.1449 17.4423H46.9373C46.9766 17.1675 46.9962 16.9321 46.9962 16.7162V16.1079C46.9962 14.7736 46.7019 13.5766 46.1328 12.5366ZM36.2037 15.2445C36.2822 14.6951 36.4392 14.2241 36.6551 13.8121C37.0083 13.1645 37.4596 12.6936 38.0679 12.3796C38.6566 12.046 39.3041 11.889 40.0105 11.889C41.0113 11.889 41.8354 12.203 42.5026 12.8113C43.1698 13.4196 43.523 14.2438 43.5622 15.2641H36.2037V15.2445Z" fill="#131C2B"/>
<path d="M98.0543 20.9155L97.7992 21.406L96.4845 23.8196H95.5819C94.6007 23.8196 93.757 23.6626 93.0505 23.3683C92.3245 23.0543 91.7751 22.5638 91.3826 21.8574C90.9902 21.1509 90.7939 20.1894 90.7939 18.9924V13.714H94.2279V18.9728C94.2279 19.6989 94.3849 20.2091 94.6792 20.4838C94.9932 20.7585 95.523 20.8958 96.2687 20.8958H98.0543V20.9155Z" fill="#131C2B"/>
<path d="M98.1132 9.43622H86.4966C86.4181 9.43622 86.3396 9.43622 86.2611 9.43622C85.3585 9.43622 84.5343 9.57358 83.7494 9.80905C83.2981 9.96603 82.8664 10.1426 82.4543 10.3781C82.3758 10.4174 82.2973 10.4762 82.2189 10.5351C80.5117 11.6928 79.5502 13.6943 79.5502 15.7547V23.8196H82.9841V15.3426C82.9841 14.3419 83.4355 13.3411 84.2989 12.8113C84.2989 12.8113 84.3185 12.8113 84.3185 12.7917C84.809 12.4777 85.3585 12.3207 85.9472 12.2815H96.5826L98.1132 9.43622Z" fill="#131C2B"/>
<path d="M94.2476 0.723755H90.8136V7.98413H94.2476V0.723755Z" fill="#131C2B"/>
</g>
<defs>
<linearGradient id="paint0_linear_804_2954" x1="21.059" y1="27.2031" x2="26.4693" y2="27.2031" gradientUnits="userSpaceOnUse">
<stop stop-color="#648BFF"/>
<stop offset="0.00791818" stop-color="#6989FF"/>
<stop offset="0.0685179" stop-color="#887BFF"/>
<stop offset="0.1369" stop-color="#A36FFF"/>
<stop offset="0.2143" stop-color="#B965FF"/>
<stop offset="0.3045" stop-color="#CA5DFF"/>
<stop offset="0.416" stop-color="#D658FF"/>
<stop offset="0.5719" stop-color="#DD55FF"/>
<stop offset="1" stop-color="#DF54FF"/>
</linearGradient>
<linearGradient id="paint1_linear_804_2954" x1="8.32485" y1="27.2031" x2="23.1183" y2="27.2031" gradientUnits="userSpaceOnUse">
<stop stop-color="#648BFF"/>
<stop offset="0.2854" stop-color="#8B90FF"/>
<stop offset="0.7692" stop-color="#C797FF"/>
<stop offset="1" stop-color="#DF9AFF"/>
</linearGradient>
<linearGradient id="paint2_linear_804_2954" x1="0" y1="12.341" x2="30.91" y2="12.341" gradientUnits="userSpaceOnUse">
<stop stop-color="#648BFF"/>
<stop offset="1" stop-color="#DF54FF"/>
</linearGradient>
<linearGradient id="paint3_linear_804_2954" x1="8.6826" y1="9.23078" x2="34.8509" y2="9.23078" gradientUnits="userSpaceOnUse">
<stop stop-color="#648BFF"/>
<stop offset="1" stop-color="#DF54FF"/>
</linearGradient>
<clipPath id="clip0_804_2954">
<rect width="130" height="28.2762" fill="white" transform="translate(0 0.723755)"/>
</clipPath>
</defs>
</svg>
