<svg width="706" height="332" viewBox="0 0 706 332" fill="none" xmlns="http://www.w3.org/2000/svg">
<path d="M412 0V110.077C412 123.706 408.905 137.157 402.947 149.415L372.161 212.766C366.204 225.025 363.108 238.476 363.108 252.105V332" stroke="url(#paint0_linear_318_10665)"/>
<path d="M537.701 0V82.2267C537.701 112.536 522.445 140.809 497.113 157.449L425.132 204.733C399.799 221.373 384.544 249.646 384.544 279.955V332" stroke="url(#paint1_linear_318_10665)"/>
<path d="M704.791 0V71.5075C704.791 107.477 683.374 139.992 650.327 154.195L472.56 230.593C439.513 244.796 418.097 277.311 418.097 313.28V332" stroke="url(#paint2_linear_318_10665)"/>
<path d="M294 0V110.077C294 123.706 297.095 137.157 303.052 149.415L333.839 212.766C339.796 225.025 342.892 238.476 342.892 252.105V332" stroke="url(#paint3_linear_318_10665)"/>
<path d="M168.299 0V82.2267C168.299 112.536 183.555 140.809 208.887 157.449L280.868 204.733C306.201 221.373 321.456 249.646 321.456 279.955V332" stroke="url(#paint4_linear_318_10665)"/>
<path d="M1.2092 0V71.5075C1.2092 107.477 22.626 139.992 55.6729 154.195L233.44 230.593C266.487 244.796 287.903 277.311 287.903 313.28V332" stroke="url(#paint5_linear_318_10665)"/>
<defs>
<linearGradient id="paint0_linear_318_10665" x1="412" y1="2.09456e-05" x2="545.1" y2="209.129" gradientUnits="userSpaceOnUse">
<stop stop-color="#9DB6FF" stop-opacity="0"/>
<stop offset="0.412629" stop-color="#9DB6FF"/>
<stop offset="0.714988" stop-color="#EEA2FF"/>
<stop offset="1" stop-color="#EEA2FF" stop-opacity="0"/>
</linearGradient>
<linearGradient id="paint1_linear_318_10665" x1="537.701" y1="-7.04236" x2="406.107" y2="320.815" gradientUnits="userSpaceOnUse">
<stop stop-color="#9DB6FF" stop-opacity="0"/>
<stop offset="0.514303" stop-color="#9DB6FF"/>
<stop offset="0.728393" stop-color="#EEA2FF"/>
<stop offset="1" stop-color="#EEA2FF" stop-opacity="0"/>
</linearGradient>
<linearGradient id="paint2_linear_318_10665" x1="704.791" y1="5.14867e-05" x2="386.051" y2="280.039" gradientUnits="userSpaceOnUse">
<stop stop-color="#9DB6FF" stop-opacity="0"/>
<stop offset="0.468484" stop-color="#9DB6FF"/>
<stop offset="0.716923" stop-color="#EEA2FF"/>
<stop offset="1" stop-color="#EEA2FF" stop-opacity="0"/>
</linearGradient>
<linearGradient id="paint3_linear_318_10665" x1="294" y1="2.09456e-05" x2="160.9" y2="209.129" gradientUnits="userSpaceOnUse">
<stop stop-color="#9DB6FF" stop-opacity="0"/>
<stop offset="0.412629" stop-color="#9DB6FF"/>
<stop offset="0.714988" stop-color="#EEA2FF"/>
<stop offset="1" stop-color="#EEA2FF" stop-opacity="0"/>
</linearGradient>
<linearGradient id="paint4_linear_318_10665" x1="168.299" y1="-7.04236" x2="299.893" y2="320.815" gradientUnits="userSpaceOnUse">
<stop stop-color="#9DB6FF" stop-opacity="0"/>
<stop offset="0.514303" stop-color="#9DB6FF"/>
<stop offset="0.728393" stop-color="#EEA2FF"/>
<stop offset="1" stop-color="#EEA2FF" stop-opacity="0"/>
</linearGradient>
<linearGradient id="paint5_linear_318_10665" x1="1.20909" y1="5.14867e-05" x2="319.949" y2="280.039" gradientUnits="userSpaceOnUse">
<stop stop-color="#9DB6FF" stop-opacity="0"/>
<stop offset="0.468484" stop-color="#9DB6FF"/>
<stop offset="0.716923" stop-color="#EEA2FF"/>
<stop offset="1" stop-color="#EEA2FF" stop-opacity="0"/>
</linearGradient>
</defs>
</svg>
