<svg width="200" height="45" viewBox="0 0 200 45" fill="none" xmlns="http://www.w3.org/2000/svg">
<g clip-path="url(#clip0_327_1558)">
<path d="M39.4264 38.5254C38.551 38.5254 37.8566 38.7669 37.283 39.2801C36.7094 39.7933 36.4377 40.4575 36.4377 41.2726C36.4377 42.0575 36.7094 42.7216 37.283 43.265C37.8566 43.8084 38.551 44.0801 39.4264 44.0801C40.3019 44.0801 40.9962 43.8084 41.5698 43.265C42.1434 42.7216 42.4151 42.0575 42.4151 41.2726C42.4151 40.4575 42.1434 39.7933 41.5698 39.2801C40.9962 38.7669 40.3019 38.5254 39.4264 38.5254Z" fill="url(#paint0_linear_327_1558)"/>
<path d="M21.3133 38.5254C20.4378 38.5254 19.7435 38.7669 19.1699 39.2801C18.5963 39.7933 18.3246 40.4575 18.3246 41.2726C18.3246 42.0575 18.5963 42.7216 19.1699 43.265C19.7435 43.8084 20.4378 44.0801 21.3133 44.0801C22.1887 44.0801 22.8831 43.8084 23.4567 43.265C24.0302 42.7216 24.3019 42.0575 24.3019 41.2726C24.3019 40.4575 24.0302 39.7933 23.4567 39.2801C22.8831 38.7669 22.1887 38.5254 21.3133 38.5254Z" fill="url(#paint1_linear_327_1558)"/>
<path d="M5.25283 1.45345L0 0.69873L11.9849 36.1402H12.0453H45.0415L47.5472 31.4308H15.366L5.25283 1.45345Z" fill="url(#paint2_linear_327_1558)"/>
<path d="M22.8528 24.246L30.7019 10.9629L34.2339 25.9063L39.7585 26.7214L53.6151 0.547852L48.1207 0.57804L37.8264 21.0158L34.5358 5.83087L28.5887 4.92521L20.9811 18.5101L18.3547 3.41578L13.3434 2.66106L17.3887 23.4309L22.8528 24.246Z" fill="url(#paint3_linear_327_1558)"/>
<path d="M144.996 0.547852H139.713V11.7177H144.996V0.547852Z" fill="#131C2B"/>
<path d="M90.234 30.4346C89.7207 30.978 89.117 31.4007 88.4226 31.6724C87.6981 31.9742 86.9736 32.1252 86.1283 32.1252C85.283 32.1252 84.5585 31.9742 83.834 31.6422C83.1396 31.3403 82.5057 30.8573 81.9623 30.2535C81.4189 29.6497 81.0264 28.895 80.7245 28.0195C80.4226 27.1139 80.3019 26.1176 80.3019 25.0007C80.3019 23.4912 80.5434 22.1931 81.0566 21.1365C81.5698 20.0799 82.2641 19.2648 83.1698 18.7516C84.0755 18.2082 85.0415 17.9365 86.1283 17.9365C87.3962 17.9365 88.483 18.2384 89.3887 18.8724C90.3245 19.5063 90.9283 20.3818 91.2 21.529H96.7245C96.2415 19.0233 95.034 17.0308 93.1321 15.5818C91.2302 14.1327 88.9057 13.4082 86.1283 13.4082C83.9245 13.4082 81.9924 13.8912 80.2717 14.8874C78.5811 15.8837 77.2528 17.2422 76.2868 18.9931C75.3207 20.7441 74.8679 22.7969 74.8679 25.0912C74.8679 27.3252 75.3509 29.3176 76.2868 31.0384C77.2226 32.7893 78.5509 34.1478 80.2717 35.1139C81.9623 36.1101 83.8943 36.5931 86.1283 36.5931C88.8755 36.5931 91.2 35.8384 93.0717 34.3893C94.9736 32.9101 96.1811 30.9478 96.6943 28.4724H91.1698C91.0792 29.2271 90.717 29.8912 90.234 30.4346Z" fill="white"/>
<path d="M118.611 17.5441C117.826 16.2158 116.71 15.2196 115.23 14.4951C113.751 13.7706 111.94 13.4385 109.857 13.4385C108.166 13.4385 106.566 13.7404 105.147 14.3441C103.698 14.9781 102.521 15.8536 101.645 17.0007C100.74 18.1479 100.226 19.5064 100.045 21.0762H105.238C105.449 19.9592 105.962 19.1441 106.808 18.5706C107.653 18.0272 108.679 17.7253 109.887 17.7253C110.974 17.7253 111.849 17.9366 112.543 18.329C113.208 18.7215 113.721 19.3253 114.053 20.08C114.385 20.8649 114.566 21.8309 114.566 23.0083H108.981C106.898 23.0083 105.147 23.28 103.759 23.8536C102.34 24.4272 101.283 25.2422 100.559 26.2687C99.834 27.2951 99.502 28.4724 99.502 29.8611C99.502 31.0989 99.8038 32.2158 100.377 33.2423C100.981 34.2687 101.857 35.0838 103.094 35.7177C104.302 36.3215 105.811 36.6234 107.593 36.6234C108.528 36.6234 109.374 36.5328 110.098 36.3215C110.823 36.1102 111.487 35.8385 112.091 35.446C112.694 35.0838 113.238 34.6611 113.66 34.1781C114.113 33.6951 114.476 33.1517 114.777 32.5781L115.291 36.08H119.819V22.3743C119.759 20.4724 119.366 18.8422 118.611 17.5441ZM114.325 26.4498C114.264 27.2347 114.083 27.9894 113.811 28.7139C113.54 29.4385 113.177 30.0724 112.694 30.646C112.211 31.2196 111.668 31.6422 110.974 31.9743C110.309 32.2762 109.525 32.4272 108.679 32.4272C107.955 32.4272 107.291 32.3064 106.717 32.0649C106.143 31.8234 105.691 31.4913 105.389 31.0385C105.087 30.6158 104.936 30.0422 104.936 29.4083C104.936 28.8045 105.087 28.2611 105.419 27.8083C105.721 27.3555 106.234 26.9932 106.898 26.7517C107.562 26.48 108.408 26.3592 109.464 26.3592H114.294V26.4498H114.325Z" fill="white"/>
<path d="M174.128 18.7214C173.223 17.0912 171.985 15.8233 170.385 14.8573C168.785 13.8912 166.913 13.4082 164.74 13.4082C162.506 13.4082 160.543 13.9214 158.883 14.9176C157.192 15.9139 155.894 17.3025 154.958 19.0535C154.053 20.8044 153.57 22.8573 153.57 25.1516C153.57 25.5742 153.6 25.9969 153.63 26.4195C153.781 28.1705 154.234 29.7403 154.989 31.129C155.925 32.8497 157.223 34.2082 158.913 35.1742C160.574 36.1403 162.506 36.6233 164.709 36.6233C166.43 36.6233 168 36.3214 169.359 35.6874C170.747 35.0535 171.894 34.178 172.86 33.0912C173.796 32.0044 174.46 30.7667 174.823 29.4082H169.449C169.087 30.2535 168.513 30.9478 167.698 31.461C166.883 32.0044 165.887 32.2459 164.649 32.2459C163.502 32.2459 162.506 31.9742 161.63 31.461C160.755 30.9478 160.06 30.1931 159.547 29.1969C159.125 28.3818 158.853 27.3856 158.792 26.2686H175.396C175.457 25.8459 175.487 25.4837 175.487 25.1516V24.2158C175.487 22.1629 175.034 20.3214 174.128 18.7214ZM158.883 22.8874C159.004 22.0422 159.245 21.3176 159.577 20.6837C160.091 19.6874 160.815 18.9629 161.721 18.4799C162.626 17.9667 163.623 17.7252 164.709 17.7252C166.249 17.7252 167.517 18.2082 168.543 19.1441C169.57 20.0799 170.113 21.3478 170.174 22.9176H158.883V22.8874Z" fill="white"/>
<path d="M198.672 18.7214C197.766 17.0912 196.528 15.8233 194.928 14.8573C193.328 13.8912 191.457 13.4082 189.283 13.4082C187.049 13.4082 185.087 13.9214 183.426 14.9176C181.736 15.9139 180.438 17.3025 179.502 19.0535C178.596 20.8044 178.113 22.8573 178.113 25.1516C178.113 27.4158 178.596 29.4082 179.532 31.129C180.468 32.8497 181.766 34.2082 183.457 35.1742C185.117 36.1403 187.049 36.6233 189.253 36.6233C190.974 36.6233 192.543 36.3214 193.902 35.6874C195.291 35.0535 196.438 34.178 197.374 33.0912C198.34 32.0044 198.974 30.7667 199.336 29.4082H193.962C193.6 30.2535 193.026 30.9478 192.211 31.461C191.396 32.0044 190.4 32.2459 189.162 32.2459C188.015 32.2459 187.019 31.9742 186.143 31.461C185.268 30.9478 184.574 30.1931 184.06 29.1969C183.638 28.3818 183.366 27.3856 183.306 26.2686H199.909C199.97 25.8459 200 25.4837 200 25.1516V24.2158C200 22.1629 199.547 20.3214 198.672 18.7214ZM183.396 22.8874C183.517 22.0422 183.758 21.3176 184.091 20.6837C184.634 19.6874 185.328 18.9629 186.264 18.4799C187.17 17.9667 188.166 17.7252 189.253 17.7252C190.792 17.7252 192.06 18.2082 193.087 19.1441C194.113 20.0799 194.657 21.3478 194.717 22.9176H183.396V22.8874Z" fill="white"/>
<path d="M70.9735 18.7214C70.0679 17.0912 68.8301 15.8233 67.2301 14.8573C65.6301 13.8912 63.7584 13.4082 61.5849 13.4082C59.3509 13.4082 57.3886 13.9214 55.7282 14.9176C54.0377 15.9139 52.7396 17.3025 51.8037 19.0535C50.8981 20.8044 50.415 22.8573 50.415 25.1516C50.415 27.4158 50.8981 29.4082 51.8339 31.129C52.7698 32.8497 54.0679 34.2082 55.7584 35.1742C57.4188 36.1403 59.3509 36.6233 61.5547 36.6233C63.2754 36.6233 64.8452 36.3214 66.2037 35.6874C67.5924 35.0535 68.7396 34.178 69.6754 33.0912C70.6415 32.0044 71.2754 30.7667 71.6377 29.4082H66.2641C65.9018 30.2535 65.3282 30.9478 64.5132 31.461C63.6981 32.0044 62.7018 32.2459 61.4641 32.2459C60.3169 32.2459 59.3207 31.9742 58.4452 31.461C57.5698 30.9478 56.8754 30.1931 56.3622 29.1969C55.9396 28.3818 55.6679 27.3856 55.6075 26.2686H72.2113C72.2716 25.8459 72.3018 25.4837 72.3018 25.1516V24.2158C72.3018 22.1629 71.849 20.3214 70.9735 18.7214ZM55.6981 22.8874C55.8188 22.0422 56.0603 21.3176 56.3924 20.6837C56.9358 19.6874 57.6301 18.9629 58.566 18.4799C59.4716 17.9667 60.4679 17.7252 61.5547 17.7252C63.0943 17.7252 64.3622 18.2082 65.3886 19.1441C66.415 20.0799 66.9584 21.3478 67.0188 22.9176H55.6981V22.8874Z" fill="white"/>
<path d="M150.853 31.612L150.46 32.3667L148.438 36.0799H147.049C145.54 36.0799 144.241 35.8384 143.155 35.3855C142.038 34.9025 141.192 34.1478 140.589 33.061C139.985 31.9742 139.683 30.495 139.683 28.6535V20.5327H144.966V28.6233C144.966 29.7403 145.208 30.5252 145.66 30.9478C146.143 31.3705 146.958 31.5818 148.106 31.5818H150.853V31.612Z" fill="white"/>
<path d="M150.943 13.9517H133.072C132.951 13.9517 132.83 13.9517 132.709 13.9517C131.321 13.9517 130.053 14.163 128.845 14.5252C128.151 14.7668 127.487 15.0385 126.853 15.4007C126.732 15.4611 126.611 15.5517 126.491 15.6422C123.864 17.4234 122.385 20.5026 122.385 23.6724V36.08H127.668V23.0385C127.668 21.4988 128.362 19.9592 129.691 19.1441C129.691 19.1441 129.721 19.1441 129.721 19.1139C130.475 18.6309 131.321 18.3894 132.226 18.329H148.589L150.943 13.9517Z" fill="white"/>
<path d="M144.996 0.547852H139.713V11.7177H144.996V0.547852Z" fill="white"/>
</g>
<defs>
<linearGradient id="paint0_linear_327_1558" x1="32.3984" y1="41.2855" x2="40.7219" y2="41.2855" gradientUnits="userSpaceOnUse">
<stop stop-color="#B3C6FF"/>
<stop offset="1" stop-color="#F1B3FF"/>
</linearGradient>
<linearGradient id="paint1_linear_327_1558" x1="12.8076" y1="41.2855" x2="35.5668" y2="41.2855" gradientUnits="userSpaceOnUse">
<stop stop-color="#B3C6FF"/>
<stop offset="1" stop-color="#F1B3FF"/>
</linearGradient>
<linearGradient id="paint2_linear_327_1558" x1="0" y1="18.4205" x2="47.5538" y2="18.4205" gradientUnits="userSpaceOnUse">
<stop stop-color="#B3C6FF"/>
<stop offset="1" stop-color="#F1B3FF"/>
</linearGradient>
<linearGradient id="paint3_linear_327_1558" x1="13.3578" y1="13.6356" x2="53.6168" y2="13.6356" gradientUnits="userSpaceOnUse">
<stop stop-color="#B3C6FF"/>
<stop offset="1" stop-color="#F1B3FF"/>
</linearGradient>
<clipPath id="clip0_327_1558">
<rect width="200" height="43.5019" fill="white" transform="translate(0 0.547852)"/>
</clipPath>
</defs>
</svg>
